<svg version="1.1" xmlns="http://www.w3.org/2000/svg" xmlns:xlink="http://www.w3.org/1999/xlink" width="156.68305" height="125.83335" viewBox="0,0,156.68305,125.83335"><g transform="translate(-161.65847,-117.08332)"><g data-paper-data="{&quot;isPaintingLayer&quot;:true}" fill="#d9d9d9" fill-rule="nonzero" stroke="none" stroke-linecap="butt" stroke-linejoin="miter" stroke-miterlimit="10" stroke-dasharray="" stroke-dashoffset="0" style="mix-blend-mode: normal"><g><g><path d="M218.40526,138.9881c1.83472,0 2.32296,1.34648 2.45288,2.06311c1.72004,-0.19767 3.54753,0.16817 5.16184,-0.44424c4.74769,-1.80109 6.3344,-5.56324 6.3318,-10.20824c-5.86597,-0.00329 -11.77584,0.18461 -17.42089,2.02548c-3.04418,0.99272 -5.9063,3.73303 -8.57937,5.35566c0.32207,-0.08255 0.66519,-0.15072 1.034,-0.20161c3.19703,-0.44112 7.22749,-0.41955 9.9778,1.59054c0.28708,-0.11305 0.63069,-0.1807 1.04195,-0.1807zM220.90526,154.34524c-0.01667,3.449 -0.27113,7.04933 -1.64229,10.2971c-0.33389,0.79087 -1.08832,1.3547 -1.42857,2.14285c-0.42095,0.97508 -0.27805,2.16715 -0.82507,3.07751c-3.01362,5.01526 -9.25709,6.9306 -15.14726,7.20976c0.27875,0.36225 0.47176,0.86387 0.47176,1.55849c0,2.5 -2.5,2.5 -2.5,2.5l-2.55385,-0.03402c-5.65779,-0.95493 -10.16229,0.1257 -15.77123,0.73614c-3.78149,0.41155 -7.8683,0.02401 -11.67491,0.01216c-2.14245,-0.00667 -6.84237,0.37311 -7.98557,-2.16964c-0.7355,-1.63592 0.85688,-3.49714 1.53758,-5.15661c0.13899,-0.33882 0.30067,-0.6764 0.47912,-1.01298c-0.35675,-1.15314 -0.39414,-2.54199 0.00471,-4.17095c0.26174,-1.06896 1.16079,-1.87009 1.74117,-2.80514l0.63257,-0.67488c-1.89589,-2.11438 -2.45229,-5.12801 -1.97425,-7.99292c-0.35041,-1.69152 -0.72709,-3.37786 -1.14641,-5.0534l-0.0567,0.44714c0,0 -1.76776,-1.76777 0,-3.53553c0.14117,-0.14117 0.28233,-0.25978 0.4226,-0.35856c-0.53848,-0.66649 -0.92933,-1.47239 -1.11814,-2.447c-0.2781,-1.43555 0.59421,-2.86347 0.89132,-4.29521c1.50505,-2.24103 4.47777,-5.87319 7.04386,-7.0126c1.30444,-0.57921 3.25603,0.19351 4.18894,-0.88664c1.12226,-1.29937 1.65075,-3.06405 2.85714,-4.28571c3.28794,-3.32954 8.70443,-7.3751 13.33625,-8.52249c0.33536,-0.08307 5.65755,-0.06885 6.28866,-0.06688c2.19839,0.00684 5.15689,-0.24237 7.09716,1.13158c2.66872,1.88979 3.35419,4.6321 4.23824,7.44557c8.58554,-4.33839 17.97183,-6.73359 27.57523,-3.5592c0.97349,2.94507 2.10576,4.82082 1.40141,7.95482c-1.80568,8.03435 -9.19674,10.76935 -16.38346,11.2905c0,2.83452 0,5.82249 0,8.23673zM181.83678,166.91212c1.61508,0.39499 3.01118,1.43952 4.50907,2.17417c0.94413,0.22435 1.87875,0.46432 2.79824,0.70501c0.66507,-0.04689 1.33988,-0.18287 1.97841,-0.02204c1.13015,0.28467 2.06238,1.09855 3.15013,1.51698c2.45261,0.94346 5.14288,0.55012 7.70406,0.55899c3.33024,0.01153 8.88018,-1.03832 10.68165,-4.44603c0.4214,-0.79713 0.25072,-1.80701 0.6035,-2.63678c0.33588,-0.79003 1.08542,-1.35596 1.42857,-2.14286c1.10636,-2.53704 1.23029,-5.5846 1.21486,-8.27433c0,-2.79167 0,-5.58333 0,-8.37499c-0.54863,-0.79342 -0.7412,-1.99084 -1.41063,-2.71438c-1.23812,-1.33821 -4.96462,-0.8783 -6.49821,-0.71507c-2.87037,0.30552 -3.92909,2.41089 -6.4916,3.39986c-3.88367,1.49885 -8.17428,2.60625 -12.27047,3.63137c-1.14728,0.47763 -2.49058,0.37744 -3.68816,0.74101c-2.19637,0.66679 -4.3088,1.61105 -6.5346,2.17185c0,0 -0.43049,0.10762 -0.97407,0.05082c-0.11326,0.0157 -0.22896,0.02383 -0.34655,0.02383h-2.85714c-0.01497,-0.00009 -0.02997,-0.00017 -0.04501,-0.00027c-2.92431,1.52392 -5.22983,3.50218 -5.31214,7.50027c-0.0131,0.63651 -0.37861,1.29228 -0.1903,1.90044c0.65811,2.12533 5.18697,0.99176 6.27191,1.42112c2.31108,0.91461 3.50446,1.94277 3.95798,3.43312c0.78314,-0.04122 1.56679,-0.08641 2.32051,0.09792zM201.3081,127.14223c-0.65894,-0.47974 -3.94186,-0.29835 -4.33142,-0.297c-1.71344,0.00593 -3.47894,-0.48774 -5.1399,-0.06687c-3.76337,0.9536 -8.2644,4.55163 -10.94947,7.19178c-1.22424,1.20377 -1.59928,3.11712 -2.85715,4.28572c-0.9257,0.86 -1.98955,1.64777 -3.18616,2.05354c-0.82904,0.28112 -1.81399,-0.41282 -2.62489,-0.08303c-0.7185,0.29221 -0.92996,1.25678 -1.51459,1.76651c-0.98138,0.85565 -2.15566,1.56098 -2.87011,2.64946c-1.01147,2.67166 2.4273,2.95559 5.10183,2.94694c0.52308,-0.14039 1.04848,-0.17745 1.5481,-0.02498c0.12318,-0.00225 0.24001,-0.00398 0.34949,-0.00478h2.85714c0.10877,0 0.21592,0.00695 0.32103,0.02042c2.07823,-0.54251 4.04903,-1.44951 6.10947,-2.05963c0.61061,-0.1808 1.27318,-0.18309 1.91324,-0.25015c0.72566,-0.56779 1.65627,-0.56778 1.65627,-0.56778l0.04695,0.03246c4.07424,-2.18505 7.56278,-6.31758 11.34842,-8.84628c1.55146,-1.03633 3.14209,-2.04984 4.76751,-3.01313c-0.36602,-1.20185 -1.17382,-4.73436 -2.54574,-5.7332z" stroke-width="0.5"/><path d="M205.19097,128.63095c0,2.5 -2.5,2.5 -2.5,2.5l-1.53651,-0.07464c-6.14077,1.44051 -7.21411,7.30087 -7.36881,12.85272c2.53046,-3.49925 8.89074,-6.64636 12.94212,-4.62512c1.26056,0.6289 3.80199,5.41206 4.11062,6.6298c0.28107,1.109 0.09336,2.28777 0.06688,3.43153c-0.02012,0.8695 -0.55885,2.62569 0.31019,2.59071c2.12359,-0.08548 4.63314,-1.66873 6.36128,-0.43162c2.81065,2.01203 3.57599,6.69442 1.35006,9.40523c-3.14737,3.83297 -6.70355,1.62195 -10.52153,1.64997c0,0 -2.5,0 -2.5,-2.5c0,-2.5 2.5,-2.5 2.5,-2.5c1.0542,0.00624 2.11772,-0.1213 3.1626,0.01873c1.10951,0.14869 2.39721,1.39594 3.45872,0.20267c0.17688,-0.19884 0.32748,-1.84721 -0.0785,-2.02334c-1.57926,-0.68514 -3.46228,1.61937 -5.06729,0.99695c-1.62248,-0.6292 -2.96245,-2.06201 -3.78522,-3.59544c-1.35555,-2.52638 0.44662,-3.76622 -0.12342,-6.09661c-0.19527,-0.79827 -0.80461,-1.43462 -1.15772,-2.1767c-0.18248,-0.38349 -0.0667,-1.00233 -0.44594,-1.19349c-0.41664,-0.21002 -0.91694,0.17422 -1.37204,0.27709c-0.88085,0.19911 -1.62121,0.44861 -2.24806,0.74882c0.59708,0.03907 1.12812,0.23183 1.52496,0.67488c3.42639,3.82535 -2.02567,9.20021 -4.24316,11.43423l-0.71429,0.71429c0,0 -0.93506,0.93506 -2.12512,0.765c-0.00187,0.10809 -0.00183,0.21623 0.00021,0.32437l-0.97821,2.5466c0,0 -0.17127,0.34253 -0.51379,0.69243c0.1929,0.01996 0.31263,0.04989 0.31263,0.04989l2.85714,0.71429c1.66172,0.42798 3.39204,0.65224 5.10795,0.63964c0,0 2.5,0 2.5,2.5c0,2.5 -2.5,2.5 -2.5,2.5c-2.12319,-0.01257 -4.25786,-0.28585 -6.32062,-0.78893l-2.85714,-0.71428c0,0 -2.42536,-0.60634 -1.81902,-3.03169c0.13076,-0.52305 0.34613,-0.90511 0.60353,-1.18265c-0.22691,-0.04844 -0.4685,-0.13252 -0.72478,-0.26066c-2.23607,-1.11803 -1.11803,-3.3541 -1.11803,-3.3541l0.45035,-0.31054c0.03297,-2.43427 0.64724,-4.87299 1.53222,-7.14093c0.10732,-0.54456 0.37115,-1.99056 0.67793,-3.43765c-0.30576,0.13735 -0.68018,0.22145 -1.13871,0.22145c-2.5,0 -2.5,-2.5 -2.5,-2.5c0,-0.13079 -0.01613,-6.62441 0.04511,-6.90134c1.40319,-6.34574 4.91431,-11.03979 11.13427,-12.66688l2.7492,-0.07464c0,0 2.5,0 2.5,2.5z" stroke-width="0.5"/><path d="M181.6208,149.30022c0.01458,-0.33723 0.1978,-2.45498 2.49874,-2.45498c0.08992,0 0.17661,0.00324 0.26018,0.00947c0.63383,-0.15199 1.42784,-0.07126 2.22186,0.72276c1.6617,1.6617 0.19941,3.3234 0.01795,3.51683c0,1.32175 0,2.64348 0,3.96523v2.85714c0,1.38071 -1.11929,2.5 -2.5,2.5c-1.18976,0 -2.18539,-0.83109 -2.43804,-1.94439l-0.70161,-2.80641c-0.61481,-1.18312 -0.96809,-2.46552 -0.75225,-3.89016c0.14225,-0.9389 0.81821,-1.68936 1.39315,-2.47548z" stroke-width="0.5"/><path d="M164.95287,216.25v-28.33333h29.16667v28.33334z" stroke-width="0"/><path d="M194.11954,242.91667v-26.66666h28.33333v26.66667z" stroke-width="0"/></g><g><g stroke-width="0.5"><path d="M299.23859,196.4881c1.83472,0 2.32296,1.34648 2.45288,2.06311c1.72004,-0.19767 3.54753,0.16817 5.16184,-0.44424c4.74769,-1.80108 6.3344,-5.56324 6.3318,-10.20824c-5.86597,-0.00329 -11.77584,0.18461 -17.42089,2.02548c-3.04417,0.99272 -5.9063,3.73302 -8.57936,5.35566c0.32207,-0.08256 0.66519,-0.15071 1.03399,-0.2016c3.19703,-0.44112 7.22749,-0.41955 9.9778,1.59054c0.28708,-0.11305 0.63069,-0.1807 1.04195,-0.1807zM301.73859,211.84524c-0.01666,3.449 -0.27113,7.04933 -1.64229,10.2971c-0.33389,0.79087 -1.08832,1.3547 -1.42857,2.14286c-0.42094,0.97508 -0.27805,2.16716 -0.82507,3.07751c-3.01362,5.01526 -9.25709,6.9306 -15.14726,7.20975c0.27875,0.36225 0.47175,0.86387 0.47175,1.5585c0,2.5 -2.5,2.5 -2.5,2.5l-2.55385,-0.03401c-5.65779,-0.95493 -10.16229,0.1257 -15.77123,0.73613c-3.78148,0.41155 -7.8683,0.02401 -11.67492,0.01217c-2.14246,-0.00666 -6.84237,0.37311 -7.98557,-2.16964c-0.7355,-1.63592 0.85688,-3.49714 1.53758,-5.15661c0.13898,-0.33882 0.30067,-0.6764 0.47913,-1.01298c-0.35674,-1.15314 -0.39415,-2.54199 0.00471,-4.17095c0.26174,-1.06895 1.16078,-1.87009 1.74117,-2.80514l0.63257,-0.67488c-1.89589,-2.11437 -2.45229,-5.12801 -1.97425,-7.99292c-0.35041,-1.69152 -0.72708,-3.37785 -1.1464,-5.05339l-0.0567,0.44714c0,0 -1.76776,-1.76777 0,-3.53554c0.14117,-0.14116 0.28233,-0.25978 0.42259,-0.35855c-0.53847,-0.66648 -0.92934,-1.47238 -1.11814,-2.44699c-0.2781,-1.43555 0.59421,-2.86347 0.89132,-4.29521c1.50505,-2.24103 4.47777,-5.87318 7.04386,-7.0126c1.30444,-0.5792 3.25603,0.19351 4.18894,-0.88664c1.12226,-1.29937 1.65075,-3.06406 2.85714,-4.28572c3.28795,-3.32954 8.70443,-7.3751 13.33625,-8.52249c0.33537,-0.08308 5.65756,-0.06884 6.28867,-0.06688c2.19839,0.00684 5.15689,-0.24237 7.09716,1.13158c2.66872,1.88978 3.35418,4.6321 4.23824,7.44557c8.58555,-4.33839 17.97183,-6.73359 27.57523,-3.5592c0.97349,2.94507 2.10576,4.82082 1.40141,7.95482c-1.80568,8.03436 -9.19674,10.76936 -16.38346,11.29051c0,2.83452 0,5.82249 0,8.23673zM262.67012,224.41212c1.61507,0.39499 3.01118,1.43952 4.50906,2.17416c0.94413,0.22435 1.87875,0.46432 2.79824,0.70502c0.66507,-0.04689 1.33988,-0.18287 1.97841,-0.02204c1.13015,0.28467 2.06238,1.09855 3.15013,1.51698c2.45261,0.94346 5.14288,0.55012 7.70406,0.55899c3.33024,0.01153 8.88018,-1.03832 10.68165,-4.44603c0.4214,-0.79713 0.25072,-1.807 0.6035,-2.63678c0.33588,-0.79003 1.08542,-1.35596 1.42857,-2.14286c1.10637,-2.53704 1.23029,-5.5846 1.21486,-8.27433c0,-2.79166 0,-5.58332 0,-8.37499c-0.54864,-0.79342 -0.7412,-1.99084 -1.41063,-2.71438c-1.23812,-1.3382 -4.96462,-0.8783 -6.4982,-0.71507c-2.87036,0.30552 -3.92909,2.4109 -6.4916,3.39986c-3.88367,1.49885 -8.17427,2.60625 -12.27046,3.63137c-1.14728,0.47762 -2.49058,0.37744 -3.68816,0.74101c-2.19637,0.66679 -4.30881,1.61105 -6.5346,2.17186c0,0 -0.43049,0.10762 -0.97407,0.05082c-0.11326,0.01571 -0.22896,0.02383 -0.34655,0.02383h-2.85714c-0.01497,-0.00009 -0.02997,-0.00018 -0.04501,-0.00027c-2.92431,1.52393 -5.22983,3.50219 -5.31214,7.50027c-0.0131,0.63651 -0.37861,1.29227 -0.1903,1.90044c0.65811,2.12533 5.18697,0.99176 6.27191,1.42113c2.31107,0.91462 3.50446,1.94277 3.95799,3.43312c0.78314,-0.04122 1.56679,-0.08642 2.32051,0.09792zM282.14144,184.64223c-0.65894,-0.47975 -3.94186,-0.29835 -4.33142,-0.297c-1.71343,0.00594 -3.47894,-0.48774 -5.1399,-0.06687c-3.76337,0.9536 -8.26441,4.55163 -10.94948,7.19179c-1.22424,1.20377 -1.59927,3.11712 -2.85714,4.28572c-0.9257,0.86 -1.98955,1.64777 -3.18616,2.05354c-0.82904,0.28112 -1.81399,-0.41282 -2.62489,-0.08303c-0.7185,0.29221 -0.92996,1.25678 -1.51459,1.76651c-0.98138,0.85565 -2.15566,1.56098 -2.87011,2.64946c-1.01147,2.67166 2.4273,2.95559 5.10183,2.94695c0.52307,-0.14039 1.04848,-0.17745 1.5481,-0.02498c0.12317,-0.00224 0.24001,-0.00398 0.34949,-0.00478h2.85714c0.10877,0 0.21592,0.00694 0.32102,0.02042c2.07823,-0.54251 4.04903,-1.44951 6.10947,-2.05963c0.6106,-0.1808 1.27318,-0.18309 1.91325,-0.25014c0.72565,-0.56778 1.65626,-0.56778 1.65626,-0.56778l0.04695,0.03246c4.07424,-2.18506 7.56278,-6.31758 11.34843,-8.84628c1.55146,-1.03633 3.1421,-2.04983 4.76751,-3.01313c-0.36602,-1.20185 -1.17382,-4.73436 -2.54574,-5.7332z"/><path d="M286.0243,186.13095c0,2.5 -2.5,2.5 -2.5,2.5l-1.53652,-0.07465c-6.14077,1.44051 -7.2141,7.30088 -7.36881,12.85273c2.53046,-3.49925 8.89074,-6.64636 12.94212,-4.62513c1.26056,0.6289 3.80199,5.41206 4.11062,6.62981c0.28107,1.109 0.09335,2.28777 0.06688,3.43153c-0.02013,0.86951 -0.55884,2.6257 0.31019,2.59072c2.12358,-0.08547 4.63314,-1.66873 6.36128,-0.43163c2.81065,2.01203 3.57599,6.69443 1.35006,9.40523c-3.14737,3.83297 -6.70354,1.62194 -10.52153,1.64996c0,0 -2.5,0 -2.5,-2.5c0,-2.5 2.5,-2.5 2.5,-2.5c1.0542,0.00624 2.11772,-0.12129 3.1626,0.01873c1.10951,0.14869 2.39721,1.39593 3.45872,0.20266c0.17688,-0.19884 0.32748,-1.84721 -0.0785,-2.02334c-1.57926,-0.68514 -3.46228,1.61936 -5.06729,0.99694c-1.62248,-0.62919 -2.96245,-2.06201 -3.78522,-3.59543c-1.35555,-2.52637 0.44662,-3.76622 -0.12343,-6.09662c-0.19527,-0.79827 -0.80461,-1.43462 -1.15772,-2.1767c-0.18248,-0.38349 -0.06671,-1.00232 -0.44594,-1.19349c-0.41664,-0.21002 -0.91694,0.17421 -1.37204,0.27708c-0.88086,0.1991 -1.62121,0.44862 -2.24806,0.74883c0.59708,0.03908 1.12811,0.23183 1.52496,0.67488c3.4264,3.82535 -2.02567,9.20021 -4.24316,11.43423l-0.71428,0.71429c0,0 -0.93506,0.93506 -2.12512,0.765c-0.00187,0.1081 -0.00183,0.21623 0.00021,0.32437l-0.97821,2.54661c0,0 -0.17126,0.34252 -0.51379,0.69243c0.19291,0.01996 0.31263,0.04989 0.31263,0.04989l2.85715,0.71429c1.66172,0.42798 3.39205,0.65224 5.10795,0.63965c0,0 2.5,0 2.5,2.5c0,2.5 -2.5,2.5 -2.5,2.5c-2.12318,-0.01257 -4.25786,-0.28585 -6.32062,-0.78893l-2.85714,-0.71429c0,0 -2.42536,-0.60635 -1.81902,-3.0317c0.13077,-0.52305 0.34614,-0.90511 0.60353,-1.18265c-0.22691,-0.04844 -0.4685,-0.13252 -0.72478,-0.26066c-2.23607,-1.11803 -1.11803,-3.3541 -1.11803,-3.3541l0.45035,-0.31054c0.03298,-2.43426 0.64724,-4.873 1.53222,-7.14094c0.10732,-0.54456 0.37115,-1.99056 0.67793,-3.43765c-0.30575,0.13735 -0.68019,0.22145 -1.13872,0.22145c-2.5,0 -2.5,-2.5 -2.5,-2.5c0,-0.13079 -0.01613,-6.62441 0.04511,-6.90134c1.4032,-6.34574 4.91431,-11.0398 11.13427,-12.66687l2.7492,-0.07465c0,0 2.5,0 2.5,2.5z"/><path d="M262.45414,206.80021c0.01459,-0.33723 0.19779,-2.45498 2.49874,-2.45498c0.08992,0 0.17661,0.00324 0.26018,0.00947c0.63382,-0.15198 1.42785,-0.07126 2.22187,0.72276c1.6617,1.6617 0.19941,3.32339 0.01795,3.51682c0,1.32175 0,2.64349 0,3.96523v2.85714c0,1.38071 -1.11929,2.5 -2.5,2.5c-1.18975,0 -2.18539,-0.83109 -2.43804,-1.94439l-0.70161,-2.80641c-0.61481,-1.18313 -0.9681,-2.46552 -0.75225,-3.89016c0.14225,-0.93891 0.81822,-1.68936 1.39316,-2.47548z"/></g><g stroke-width="0"><path d="M244.95287,145.41667v-28.33334h29.16667v28.33334z"/><path d="M274.11954,172.08334v-26.66666h28.33333v26.66667z"/></g></g></g></g></g></svg>